<svg xmlns="http://www.w3.org/2000/svg" viewBox="0 0 1200 900">
  <defs>
    <linearGradient id="bg" x1="0" y1="0" x2="1" y2="1">
      <stop offset="0%" stop-color="#f2f2f2"/>
      <stop offset="100%" stop-color="#cfcfcf"/>
    </linearGradient>
    <linearGradient id="glass" x1="0" y1="0" x2="0" y2="1">
      <stop offset="0%" stop-color="#ffffff"/>
      <stop offset="100%" stop-color="#d6d6d6"/>
    </linearGradient>
  </defs>
  <rect width="1200" height="900" fill="url(#bg)"/>
  <rect x="0" y="0" width="1200" height="430" fill="#efefef"/>
  <rect x="60" y="0" width="18" height="430" fill="#666"/>
  <rect x="560" y="0" width="18" height="430" fill="#666"/>
  <rect x="1060" y="0" width="18" height="430" fill="#666"/>
  <rect x="0" y="430" width="1200" height="470" fill="#dadada"/>
  <polygon points="110,540 980,520 1200,900 0,900" fill="#bdbdbd"/>
  <g fill="#222">
    <circle cx="380" cy="380" r="66"/>
    <rect x="315" y="452" width="150" height="188" rx="50"/>
    <rect x="295" y="500" width="78" height="180" rx="36" transform="rotate(18 334 590)"/>
    <rect x="420" y="500" width="78" height="200" rx="36" transform="rotate(-10 459 600)"/>
    <rect x="336" y="620" width="55" height="220" rx="28" transform="rotate(6 363 730)"/>
    <rect x="404" y="620" width="55" height="210" rx="28" transform="rotate(-3 431 725)"/>
  </g>
  <g fill="#505050">
    <circle cx="832" cy="382" r="62"/>
    <rect x="765" y="452" width="154" height="190" rx="50"/>
    <rect x="727" y="516" width="74" height="178" rx="36" transform="rotate(-15 764 605)"/>
    <rect x="894" y="510" width="72" height="192" rx="36" transform="rotate(14 930 606)"/>
    <rect x="790" y="630" width="54" height="214" rx="28"/>
    <rect x="864" y="630" width="54" height="214" rx="28"/>
  </g>
  <g fill="#7c7c7c">
    <ellipse cx="610" cy="695" rx="445" ry="90"/>
    <rect x="436" y="615" width="340" height="42" rx="16"/>
    <rect x="290" y="612" width="90" height="34" rx="12" transform="rotate(-13 335 629)"/>
    <rect x="834" y="615" width="110" height="32" rx="12" transform="rotate(10 889 631)"/>
  </g>
  <g fill="url(#glass)" opacity=".58">
    <rect x="240" y="640" width="120" height="72" rx="10"/>
    <rect x="844" y="668" width="104" height="58" rx="10"/>
    <rect x="560" y="620" width="122" height="84" rx="10"/>
  </g>
</svg>