<svg xmlns="http://www.w3.org/2000/svg" viewBox="0 0 1600 1000">
  <defs>
    <linearGradient id="g1" x1="0" y1="0" x2="1" y2="1">
      <stop offset="0%" stop-color="#0c2d69"/>
      <stop offset="100%" stop-color="#061735"/>
    </linearGradient>
    <linearGradient id="glass" x1="0" y1="0" x2="0" y2="1">
      <stop offset="0%" stop-color="#ffffff" stop-opacity=".25"/>
      <stop offset="100%" stop-color="#ffffff" stop-opacity=".05"/>
    </linearGradient>
  </defs>
  <rect width="1600" height="1000" fill="url(#g1)"/>
  <g opacity=".24" stroke="#d7e4ff" stroke-width="2">
    <path d="M0 780 L380 450 L380 1000" fill="none"/>
    <path d="M220 1000 L220 520 L660 180 L660 1000" fill="none"/>
    <path d="M450 1000 L450 380 L960 110 L960 1000" fill="none"/>
    <path d="M710 1000 L710 460 L1230 210 L1230 1000" fill="none"/>
    <path d="M1010 1000 L1010 390 L1520 160 L1520 1000" fill="none"/>
  </g>
  <g opacity=".18" fill="url(#glass)">
    <rect x="90" y="200" width="250" height="620"/>
    <rect x="390" y="120" width="210" height="700"/>
    <rect x="650" y="180" width="280" height="640"/>
    <rect x="970" y="140" width="220" height="680"/>
    <rect x="1240" y="90" width="210" height="730"/>
  </g>
  <g opacity=".14" fill="#fff">
    <circle cx="220" cy="130" r="90"/>
    <circle cx="330" cy="160" r="70"/>
    <circle cx="1320" cy="120" r="120"/>
  </g>
</svg>