<svg xmlns="http://www.w3.org/2000/svg" viewBox="0 0 1200 860">
  <defs>
    <linearGradient id="bg" x1="0" y1="0" x2="1" y2="1">
      <stop offset="0%" stop-color="#0b2a60"/>
      <stop offset="100%" stop-color="#061733"/>
    </linearGradient>
  </defs>
  <rect width="1200" height="860" fill="url(#bg)"/>
  <g opacity=".2" fill="#fff">
    <rect x="90" y="150" width="220" height="580"/>
    <rect x="370" y="90" width="160" height="640"/>
    <rect x="600" y="120" width="220" height="610"/>
    <rect x="880" y="70" width="170" height="660"/>
  </g>
  <g opacity=".45" stroke="#caa56b" stroke-width="4" fill="none">
    <path d="M80 710 L290 520 L430 610 L650 340 L840 420 L1080 170"/>
    <path d="M80 590 L320 540 L510 450 L690 410 L900 260 L1120 240"/>
  </g>
  <g opacity=".12" stroke="#ffffff" stroke-width="3">
    <path d="M80 120 H1120"/>
    <path d="M80 280 H1120"/>
    <path d="M80 440 H1120"/>
    <path d="M80 600 H1120"/>
    <path d="M80 760 H1120"/>
  </g>
</svg>